<svg width="100" height="100" viewBox="0 0 100 100" fill="none" xmlns="http://www.w3.org/2000/svg">
<path d="M91.6667 16.6625C88.4167 18.5916 81.8958 21.2208 78.0625 21.9791C77.95 22.0083 77.8583 22.0458 77.75 22.075C74.3625 18.7333 69.7208 16.6625 64.5833 16.6625C54.2292 16.6625 45.8333 25.0583 45.8333 35.4125C45.8333 35.9583 45.7875 36.9625 45.8333 37.4958C31.8625 37.4958 21.2292 30.1791 13.6042 20.8291C12.775 22.9125 12.4125 26.2041 12.4125 29.2958C12.4125 35.1333 16.975 40.8666 24.0792 44.4208C22.7708 44.7583 21.3292 45 19.8292 45C17.4083 45 14.8458 44.3625 12.5 42.4291C12.5 42.5 12.5 42.5666 12.5 42.6416C12.5 50.8 21.1583 56.3541 28.8583 57.9C27.2958 58.8208 24.1458 58.9125 22.6083 58.9125C21.525 58.9125 17.6917 58.4166 16.6667 58.225C18.8083 64.9125 26.5333 68.6708 33.8958 68.8041C28.1375 73.3208 24.1417 74.9958 12.35 74.9958H8.33334C15.7833 79.7708 25.2708 83.3333 34.7792 83.3333C65.7375 83.3333 83.3333 59.7375 83.3333 37.4958C83.3333 37.1375 83.325 36.3875 83.3125 35.6333C83.3125 35.5583 83.3333 35.4875 83.3333 35.4125C83.3333 35.3 83.3 35.1916 83.3 35.0791C83.2875 34.5125 83.275 33.9833 83.2625 33.7083C86.5542 31.3333 89.4083 28.3708 91.6667 24.9958C88.6458 26.3375 85.4042 27.2375 82 27.6458C85.475 25.5625 90.4125 20.5958 91.6667 16.6625Z" fill="black"/>
</svg>
